<?xml version="1.0" encoding="UTF-8"?>
<!DOCTYPE svg PUBLIC "-//W3C//DTD SVG 1.1//EN" "http://www.w3.org/Graphics/SVG/1.1/DTD/svg11.dtd">
<!-- Creator: CorelDRAW -->
<svg xmlns="http://www.w3.org/2000/svg" xml:space="preserve" width="210mm" height="297mm" version="1.1" style="shape-rendering:geometricPrecision; text-rendering:geometricPrecision; image-rendering:optimizeQuality; fill-rule:evenodd; clip-rule:evenodd"
viewBox="0 0 21000 29700"
 xmlns:xlink="http://www.w3.org/1999/xlink"
 xmlns:xodm="http://www.corel.com/coreldraw/odm/2003">
 <defs>
  <style type="text/css">
   <![CDATA[
    .fil0 {fill:#060606}
   ]]>
  </style>
 </defs>
 <g id="Layer_x0020_1">
  <metadata id="CorelCorpID_0Corel-Layer"/>
  <path class="fil0" d="M9033.49 10032.21c97.08,1.58 387.88,27.45 448.42,126.51l-22.66 9.61c-146.39,36.96 -369.23,-22.48 -805.93,191.51 -58.65,28.75 -181.24,113.21 -231.13,123.86 -51.9,-497.62 68.43,-411.77 96.71,-641.31 -279.37,48.88 -490.92,405.26 -540.47,679.16 -149.93,13.08 -186.8,-149.28 -288.09,-157.87 -17.61,606.19 358.74,932.75 355.95,1001.34 -72.98,12.23 -36.55,7.75 -62.69,-18.33 -97.4,-97.16 -256.64,-325.05 -527.61,-177.6 -149.72,81.48 -168.4,314.01 -157.36,470.12 6.67,94.24 48.11,104.45 49.78,170.93 -81.25,-4.86 -391.76,-226.01 -825.91,-49.84 -55.29,22.44 -199.27,78.09 -217.46,127.95 73.92,75.44 253.19,45.83 319.75,205.19 -42.23,66.98 -248.08,213.66 -325.46,280.23 -103.59,89.13 -224.56,194.12 -317.96,282.91 -409.92,389.82 -998.94,718.63 -1562.05,839.93 -177.06,38.14 -295.99,90.82 -407.57,194.91 -79.89,74.52 -208.92,257.67 -215.36,390.15 59.71,-2.26 137.73,-97.64 251.95,-89.24 4.58,25.38 -57.04,219.84 -51.5,358.69 2.76,69.09 10.84,115.89 31.55,172.71 13.29,36.49 23.1,81.29 49.23,111.55 27.12,31.4 -1.59,12.92 36.52,25.97 31.01,-134.99 22.46,-292.13 116.96,-368.42 104.27,87.65 121.45,215.28 384.16,377.06 404.71,249.22 769.03,476.54 1152.01,754.18 64.25,46.57 161.47,127.8 227.97,166.7 -2.8,146.21 -94.77,328.93 135.77,466.26 181.02,107.84 336.59,49.29 552.64,47.86 -26.56,54.08 -75.04,66.53 -133.56,97.33 -98.26,51.7 -182.51,103.76 -295.21,140.03 -60.74,19.55 -102.74,20.56 -124.54,98 -37.67,133.71 47.11,251.5 147.58,273.52 242.78,53.21 553.28,-14.6 767.26,-106.69 244,-105 461.8,-280.9 618.2,-494.46 50.99,-69.61 39.14,-95.04 49.85,-186.92 103.44,-66.9 254.49,-58.68 468.52,-219.03 92.09,-68.99 98.63,-126.79 219.45,-44.1 63.41,43.39 156.57,89.23 213.3,139.11 -15.01,50.52 -141.27,173.25 -174.37,207.75 -64.29,67.03 -118.41,148.35 -172.29,223.85 -114.05,159.85 -207.87,326.55 -276.04,515.64 -85.71,237.69 25.67,450.42 217.91,524.69 106.77,41.26 226.13,40.76 360.01,35.41 130.51,-5.21 227.99,-56.06 359.39,-50.22 79.51,242.98 318.45,170.1 440.38,177.05 -9.54,71.13 -157.84,240.7 -59.51,395.59 108.92,171.56 326.74,67.97 395.8,132.18 27.19,27.98 59.25,297.42 348.24,365.04 107.37,25.12 114.34,3.33 222.37,0.22 -39.32,147.51 -188.24,380.07 76.41,484.31 162.94,64.17 463.93,-33.79 594.2,-89.88 162,-69.76 314.2,-168.91 438.28,-267.1 69.56,-55.04 136.2,-103.9 197.4,-155.03 60.04,-50.14 128.6,-134.86 196.8,-157.31 50.38,73.83 20.98,206 70.01,285.47 34.6,56.03 144.29,130.96 234.47,122.66 143.64,-13.23 274.54,-61.98 390.75,-136 50.58,-32.22 67.25,-61.66 125.56,-63.32 46.54,140.77 23.8,512.18 458.73,401.5 115.3,-29.34 220.13,-99.9 287.42,-169.72 176.21,-182.86 321.53,346.64 837.33,-379.36 65.35,-91.97 116.03,-180.04 173.94,-281.1 24.55,-42.82 136.21,-280.33 162.65,-306.11l36.7 39.75c40.08,49.04 58.38,85.94 118.09,114.76 50.46,24.34 197.93,65.47 262.35,42.42 71.38,-25.54 98.62,-113.92 198.24,-123.36 138.75,-13.14 151.68,-4.27 241.92,-79.11 61.95,-51.39 87.64,-110.28 198.53,-122.34 98.59,-10.74 205.49,-2.11 279.81,-45.86 254.09,-149.59 208.28,-178.04 305.95,-336.38 187.63,32.09 267.83,157.93 516.07,-116.25 104.89,-115.85 66.47,-211.28 111.06,-270.26 20.49,-27.09 78.52,-47.1 111.02,-78.86 37.66,-36.81 48.51,-73.18 82.65,-112.46 128.55,0.16 217.84,7.71 269.2,-107.09 57.74,-129.04 -37.88,-229.31 -96.11,-280.69 -90.49,-79.85 -187.84,-75.36 -331.57,-57.64 -90.72,11.19 -58.49,-7.77 -129.04,-40.2 -48.93,-22.5 -115.17,-21.72 -177.09,-29.02 -30.98,-51.68 -41.1,-124.19 -77.88,-184.21 -36.26,-59.15 -79.02,-111.97 -127.44,-150.43 -142.25,-112.99 -216.85,-107.03 -425.3,-132.1 -178.31,-346.2 -257.76,-159.5 -395.44,-259.88 25.02,-61.14 137.39,-108.7 204.65,-172.1 165.87,-156.37 522.98,-539.45 103.18,-648.69 1.59,-54.54 36.32,-61.81 74.24,-96.45 132.82,-121.41 83.13,-271.84 -14.33,-377.94 -117.82,-128.27 -203.17,-245.88 -326.14,-406.7 -97.04,-126.92 -518.21,-802.92 -526.57,-948.1 78.69,-0.07 110.35,65.74 173.53,85.18 6.39,-109.66 -69.88,-158.66 -101.02,-249.35 46.64,-30.82 10.75,-4.05 43.19,-11.78l60.21 -17.54c-38.22,-169.01 -212.37,-190.27 -254.02,-263.82 24.4,-41.24 16.47,-28.8 62.84,-55.9 70.78,-41.37 45.05,-11.1 62.95,-69.76 -748.5,-248.32 -979.36,96.29 -1568.98,4.7 -344,-53.44 -516.64,-195.46 -786.06,-242.4 -76.4,-13.31 -79.16,5.11 -108.73,-47.04 49.06,-25.53 56.46,-25.07 111.03,-33.04 27.57,-4.04 37.47,-2.37 58.94,-10.48 78.98,-29.82 16.49,-0.39 44,-29.76 -232.35,-154.92 -412.16,-53.01 -604.39,-83 0.35,-70.81 29,-105.18 16.19,-222.04 -31.46,7.85 -164.76,167.34 -201.03,204.82 -62.95,65.05 -151.5,136.97 -221.6,180.6 -18.69,-42.59 159.15,-531.09 -104.88,-663.76 -80.28,-40.34 -274.38,-68.62 -386.25,-40.47 -86.46,21.76 -246.75,150.8 -294.47,148.94 -15.68,-73.72 119.8,-210.89 171.91,-313.95 54.38,-107.56 95.15,-274.96 62.08,-418.27 -82.29,-7.23 -72.58,87.84 -194.55,92.37 -12.2,-236.48 10.24,-394.83 -96.66,-608.12 -23.39,-46.69 -2.63,-35.65 -52.15,-51.69 -74.9,252.12 -116.48,476.88 -311.47,656.05 -75.68,69.53 -117.92,112.59 -220.81,48.55 -26.64,-193.25 -2.65,-394.62 107.02,-543.21 28.88,-39.12 80.87,-63.02 89.57,-130.19 -313.33,76.29 -318.67,283.55 -436.88,157.58 -73.96,-78.81 -134.54,-139.27 -231.72,-192.35 -265.52,-145 -781.47,-93.8 -861.39,112.64zm-1788.57 2031.93c30.21,72.39 40.9,20.13 83.05,87.93 -33.09,41.59 -88.91,63.02 -136.37,87.1 -101.16,51.34 -320.56,228.92 -331.65,332.43l150.03 -19.33c-9.09,100 -108.18,193.26 -158.94,285.32 -154.02,279.29 -227.48,663.33 -138.88,981.56l46.31 83.17c23.24,-51.53 63.05,-145.85 131.39,-143.86 27.78,254.95 40.05,330.47 137.67,520.98 72.34,141.18 185.45,303.98 296.21,380.19 85.93,27.54 346.27,-176.69 427.98,-232.09 87.03,-59.02 72.8,-23.92 180.85,-39.88 -4.7,-44.47 -305.44,-446.05 -169.12,-637.59 9.23,12.78 6.86,1.92 13.6,31.83 32.47,144.17 -11.6,138.99 83.23,326.56 254.9,504.19 734.84,506.3 825.06,579.29 -53.62,27.04 -216.72,-10.39 -286.44,-33.04l-257.36 -99.94c22.39,79.42 57.68,113.78 87.3,180.86 30.52,69.13 45.16,117.79 73.03,191.67 219.83,582.78 -263.14,308.49 742.89,854.08l364.05 164.51c123.64,54.53 252.76,104.1 380.93,144.53 171.58,54.1 229.73,112.61 407.64,35.3 537.02,-233.32 1214.91,-672.41 1651.06,-1018.1 181.11,-143.56 1013.88,-868.7 1087.68,-1050.13 -40.83,-69.25 -107.01,-124.77 -165.04,-185.59 -115.58,-121.14 -409.39,-478.47 -421.63,-651.34l252.02 0.97c-24.24,-183.37 -374.71,-445.2 -526.13,-543.67l-175.75 -85.63c-67.56,-27.85 -40.31,4.4 -62.57,-44.41 39.22,-27.67 53.55,-14.22 94.76,-38.49 19.66,-11.58 15.07,-10.14 26.18,-20.14 -131.97,-140.43 -412.58,-201.07 -609.64,-227.93 -125.38,-17.09 -165.45,8.88 -273.49,11.25 7.48,-100.22 78.77,-103.03 109.7,-200.13 -532.87,-7.02 -838.19,323.41 -1149.49,377.63 -45.57,7.93 -141.82,22.9 -173.1,39.18 26.5,59.06 66.58,56.05 84.7,145.98 -80.68,-10.5 -132.41,-153.29 -355.88,-196.48 7.9,65.86 34.89,101.16 47.26,166.05 -74.71,-2.2 -56.55,-26.27 -114.38,-87.63 -40.4,-42.86 -69.46,-78.7 -135.38,-89.78 0.98,112.03 11.84,160.2 -38.15,256.31 -176.92,340.14 -867.59,221.05 -1094.32,2.36 -174.32,-168.14 -89.62,-296.02 -78.7,-459.88 -206.75,-7.33 -260.42,-7.83 -409.75,76.6 -106.75,60.35 -175.07,169.53 -184.56,294.37 132.46,36 270.9,-90.79 316.37,-9.33 54.32,97.32 -205,81.06 -289.58,99.38 -8.17,59.87 2.69,87.18 21.97,135.13 138.26,26.55 296.88,-157.6 297.73,25.33 -66.23,30.63 -130.85,1.33 -223.22,51.98 15.48,106.4 274.88,228.62 381.71,239.81 76.27,7.97 243.38,9.37 319.51,2.01 51.92,-5.03 209.29,-39.66 238.33,-80.59 -14.39,-79.11 -72.33,-41.64 -85.56,-111.78 116.88,-7.75 439.38,235.82 527.15,313.23 304.38,268.4 1002.64,253.46 1096.58,77.04 -77.05,-111.32 -189.18,-25.72 -161.46,-161.23 71.99,-31.02 69.4,9.01 114.6,44.58 27.87,21.94 98.85,63.57 132.9,66.82 61.42,-42.32 127.1,-152.1 133.68,-244.67 -217.04,-10.81 -253.07,102.47 -252.23,-45.96 44.28,-16.03 61.58,-11.31 118.45,-11.43 149.14,-0.3 205.26,-42.58 85.15,-246.78 -24.2,-41.16 -42.92,-72.54 -76.67,-80.65 -40.46,-9.74 -57.58,7.79 -96.47,2.06 -36.53,-5.39 -7.84,6.09 -32.26,-11.63 220.38,-154.73 1150.25,-154.23 1231.16,-14.65l-583.17 -51.27c-153.63,-0.15 -349.68,33.46 -403.79,65.92 12.67,62.18 42.21,82.73 66.61,145.41 19.83,50.96 18.81,135.92 39.82,182.34 71.05,30.44 207.29,52.04 294.86,83.94 76.25,27.8 221.17,76.49 249.29,130.62 -32.78,15.24 -190.17,-58.4 -243.19,-74.46 -77.28,-23.39 -212.77,-56.64 -296.73,-59.54l-139.92 309.89c52.41,101.34 203.76,196.6 214.91,353.54 -77.44,-32.22 -181.39,-267.22 -280.2,-295.24 -74.92,0.09 -68.4,18.36 -127.12,50.88 -49.63,27.49 -59.57,36.48 -85.91,86.34 -54.5,103.15 -75.11,148.47 -144.08,224.32 -79.46,87.42 -296.71,265.53 -471.69,248.8 -3.34,-69.4 48.89,-131.95 65.66,-202.85 17.67,-74.72 27.7,-162.9 24.94,-242.23 -53.43,-30.24 -110.91,-31.86 -182.14,-47.17 -55.38,-11.91 -126.8,-38.96 -173.48,-64.9 -152.18,-84.56 -257.39,-217.5 -399.6,-305.9 -100.66,-62.56 -211.44,29.37 -348.87,63.94 -225.02,56.6 -272.79,-87.38 -267.69,277.68 1.36,96.96 110.46,356.02 -87.71,218.53 -399.52,-277.17 -264.48,-477.05 -343.84,-580.05 -44.78,-58.12 -113.8,-77.67 -181.26,-183.9 -123.19,1.33 -213.21,103.71 -324.1,117.07 23.78,-87.24 207.78,-134.06 267.97,-217.2l-28.26 -148.48 -120.98 -8.02c-101.55,17.9 -237.21,73.66 -340.7,69.32 53.64,-114.51 366.74,-103.29 434.71,-167.4 44.2,-45.2 38.79,-158.05 65.71,-213.02 70.58,-144.1 281.53,-271.98 441.05,-283.98l97.54 -9.08c40.61,-14.24 7.18,6.37 35.94,-20.75 -161.72,-83.21 -682.1,-146.43 -860.28,-24.72zm6051.59 1076.2c-13,93.23 44.91,238.08 80.59,324.2 74.13,-24.64 92.11,-235.32 94.6,-309.25 20.46,17.24 45.45,45.95 62.02,98.48 36.9,116.97 -9.22,258.25 -70.03,347.73 -177.16,260.67 -287.17,461.84 -519.34,683.13 -108.97,103.85 -183.03,195.63 -298.48,301.62 -400.81,367.95 -848.37,742.05 -1342.57,1075.57 -63.68,42.98 -114.37,69.47 -179.87,113.69 -64.38,43.47 -127.39,78.1 -189.78,118.59 -373.46,242.38 -784.55,453.35 -1191.15,628.21 -118.15,50.8 -1112.6,481.57 -1082.45,58.89 11.27,-157.97 112.75,-288.11 208.47,-407.26 45.01,-56.03 119.72,-108.7 143.13,-170.89 -55.14,-28.94 -164.47,-85.21 -236.87,-100.51 -107.13,59.4 -319.62,401.37 -390.5,532.9 -51.39,95.38 -122.23,215 -77.36,350.04 151,454.56 654.94,249.28 984.85,175.85 184.66,-41.1 376.63,-79.5 551.78,-134.75 46.31,-14.6 115.44,-56.91 155.95,-42.88 -12.15,53.42 -112.18,83 -163.18,106.35l-571.47 235.39c-36.96,22.55 -22.9,2.66 -37.64,42.22 190.39,71.08 534.87,-48.92 736.28,-105.51 227.27,-63.86 469.52,-142.14 683.24,-225.59 315.26,-123.12 630.21,-266.78 921.59,-438.65 49.68,-29.3 245.5,-154.45 298.16,-157.17 -39.42,83.51 -454.29,332.21 -550.14,386.66 -198.82,112.96 -404.6,242.57 -619.13,337.12 -223.06,98.33 -420.01,189.44 -662.72,274.94 -79.54,28.01 -300.24,86.92 -340.69,126.16 -81.28,78.84 -83.63,252.97 22.55,323.57 231.98,154.26 505.63,17.39 734.74,-47.94 560.17,-159.75 1082.64,-480.44 1544.63,-816.87 89.68,-65.32 165.68,-169.69 262.26,-209.51 -7.65,70.15 -366.74,379.69 -440.68,440.83 -845.17,698.97 -1717.41,818.26 -1802.62,879.84 -3.93,74.04 38.71,132.01 85.08,160.28 73.29,44.67 162.74,24.95 237.59,3.36 156.16,-45.03 284.28,-79.02 422.86,-136.28 136.27,-56.29 250.95,-107.39 370.79,-171.29 60.29,-32.14 339.15,-195.4 351.16,-197.48 -13.54,126.41 -738.57,529.51 -852.71,573.35 -133.77,51.37 -197.79,224.18 -105.51,310.76 79.82,74.87 290.43,46.43 391.84,6.97 216.87,-84.4 671.36,-470.99 837.29,-614.23 588.08,-507.7 1161.99,-1154.05 1545.11,-1827.17 34.78,-61.11 147.46,-259.52 193.41,-286.34 -19.51,209.08 -526.74,1024.59 -663.68,1239.2 -119.9,187.91 -273.47,367.17 -412.62,540.11 -73.65,91.53 -303.04,281.8 -319.52,404.41 -12.29,91.41 -36.94,233.63 68.39,265.73 121.76,37.12 344.5,-79.11 423.16,-146.41 309.59,-264.85 652.19,-749.59 855.02,-1094.96 238.67,-406.37 440.76,-915.74 538.61,-1406.21 25.36,-127.14 82.39,-478.37 74.49,-593.12 -159.8,-99.59 -204.32,98.85 -375.15,303.51 -124.97,149.7 -229.53,262.67 -359.75,387.47 -156.17,149.66 -662.19,586.83 -870.3,632.63 16.23,-41.66 43.71,-53.98 85.42,-84.06 331.7,-239.23 693.08,-607.62 941.8,-919.26 405.91,-508.6 282.72,-323.04 154.02,-646.83l-49.18 -91.18c-64.44,21.94 -99.86,94.34 -142.38,143.46 -381.56,440.82 -856.33,846.21 -1385.33,1136.92 -127.17,69.88 -250.95,129.46 -369.34,188.53 -179.24,89.43 -404.07,165.78 -597.11,235.14 -49.47,17.78 -163.53,77.59 -212.22,47.47 15.91,-27.08 173.84,-83.25 215.5,-101.26 814.52,-352.15 1501.03,-920.96 2099.82,-1535.53 498.74,-511.89 169.78,-302.75 251.43,-661.23 15.91,-69.84 92.26,-143.79 139.63,-191.71 115.38,-14.12 152.4,34.78 278.48,23.58 46.94,-47.11 274.32,-340.6 185.49,-445.78 -30.66,-25.48 -102.4,-26.43 -142.02,-4.48 -34.22,18.95 -56.56,71.41 -79.76,110.02 -36.26,60.34 -114.98,184.56 -180.45,194.91 6.79,-88.54 133.34,-214.62 130.52,-540.95 -1.3,-149.95 -79.03,-117.69 -218.75,-84.5 -95.2,22.6 -170.59,37.95 -259.3,77.25zm740.15 4155.18c51.02,69.67 -124.24,492.27 -153.65,550.63 -33.39,66.26 -88.69,166.79 -133.21,234.43 -32.97,50.1 -134.39,162.12 -146.23,212.8 196.24,114.82 333.93,-148.81 454.27,-329.26 218.24,-327.29 442.41,-786.21 524.27,-1174.27 30.1,-142.66 88.19,-419.93 89.03,-563.34 0.54,-91.91 -12.06,-152.69 39.74,-169.1 69.87,228.1 -104.01,1287.6 -104,1287.62 26.41,133.61 138.78,195.06 298.31,186.71 93.69,-133.05 145.45,-429.45 147.91,-601.21 1.76,-123.14 -11.17,-152.78 -12.15,-197.25l7.05 -38.14c39.32,31.03 48.14,98.3 57.65,161.99 51.89,347.26 16.5,304.73 23.94,649.41 178.71,7.47 290.36,-71.48 337.7,-200.59 168.67,-2.42 336.16,9.19 475.35,-184.6 147.77,-205.71 56.44,-433.26 114.46,-560.16l12.29 2.57c76.11,51.96 115.2,349.27 192.76,381.7 174.4,72.93 322.49,-126.16 364.73,-240.12 52,-140.25 -29.34,-132.19 99.63,-206.02 48.5,-27.76 133.8,-105.15 105.82,-193.29 -33.2,-104.61 -137.33,-33.19 -217.6,-61.67 -199.03,-70.61 -140.97,22.74 -240.36,5.92 -16.22,-386.58 -329.81,-549.56 -452.26,-514.06 -13.96,97.72 -53.05,394.93 -93.6,478.84 -34.7,71.77 8.44,26.85 -47.24,41.4 21.99,-133.64 25.47,-325.27 -2.71,-454.45 -33.98,-155.68 -34,-280.07 -222.85,-286.64 2.94,203.39 2.94,970.17 -92.08,1156.66 -23.97,-28.74 -9.18,7.37 -16.89,-35.62 -5.46,-30.38 -3.8,-0.79 -0.33,-36.71 34.93,-361.23 24.38,-247.63 14.6,-622.15 -3.64,-139.14 -84.15,-531.17 -136.24,-627.41 -94.12,16.86 -138.17,58.24 -262.13,56.1 -86.45,-1.5 -178.33,-22.48 -223.82,-68.92 -58.13,-59.35 -85.99,-118.91 -116.99,-204.06 -44.37,-121.92 -26.49,-149.64 -201.49,-122.01 -10.4,30.87 -61.42,462.55 -110.26,646.33l-139.41 438.36c-23.61,64.55 -26.95,93.56 -81.07,123.55 4.43,-76.63 110.43,-401.17 122.52,-579.01 13.95,-205.07 46.99,-427.66 24.69,-653.19 -59.43,-35.47 -76.97,-32.19 -172.42,-25.08 -25.29,117.17 -23.65,270.01 -42.87,395.85 -146.29,957.84 -455.33,1790.23 -1058.18,2547.76 -44.12,55.45 -175.45,197.54 -200.63,253.09 -79.96,176.5 75.48,517.34 420.04,186.35 263.05,-252.68 421.48,-376.65 610.4,-737.27 30.81,-58.83 123.38,-291.68 143.51,-312.47zm-7298.97 -5363.3c31.37,57.2 139.36,81.52 146.16,190.54 -44.22,49.86 -259.77,178.95 -324.32,232.81 -100.69,84.02 -193.92,155.24 -307.04,250.15 -321.68,269.85 -560.62,509.42 -961.74,709.81 -260.19,129.99 -474.74,245.45 -774.43,336.96l-314.43 96.02c-2,0.95 -40.96,24.69 -44.8,28.31 -25.98,24.6 -21.02,13.84 -33.7,50.8l178.78 -3.8c-0.1,84.41 -116.68,187.91 -122.05,283.71 58.07,-6.69 56.42,-70.82 168.24,-65.75 49.02,67.07 76.51,179.68 141.48,269.24 252.79,348.51 424.7,355.68 712.42,562.87l506.54 331.68c75.67,45.35 168.53,122.77 246.7,176.2 283.02,193.47 125.66,58.52 305.34,91.56 -10.56,83.52 -139.08,145.59 -139.33,299.24 -0.71,431.33 951.69,67.93 1045.88,54.42 -10.74,71.61 -64.72,109.9 -104.38,153.52 -40.69,44.78 -87.16,90.54 -132.15,131.7 -90.84,83.14 -185.07,153.98 -302.82,210.58 -201.81,96.99 -340.4,114.89 -297.9,204.13 51.67,108.48 696.59,35.36 1092.15,-392.29 149.63,-161.78 111.38,-150.23 52.95,-356.56 -23.94,-84.56 -113.45,-342.26 -63.56,-427.67 45.32,67.91 59.32,221.5 133.02,315.99 2.74,3.51 11.34,13.87 14.47,17.06 23.83,24.23 -5.48,3.5 28.39,22.83 52.89,-59.08 34.27,-80.51 59.67,-155.2 13.89,-40.86 40.83,-106.48 56.66,-146.49 20.82,-52.68 43.13,-94.42 65.11,-140.02 15.28,-31.67 17.85,-44.43 32.5,-69.68 27.89,-48.03 13.55,-31.07 53.12,-55.42 -1.68,60.76 -27.65,104.7 -46.77,149.44 -38.82,90.84 -120.13,374.16 -121.74,474.56 145.61,-0.31 280.69,-74.65 366.47,-140.62 148.45,-114.19 179.77,-124.15 162.45,-349.7 -10.62,-138.27 -57.67,-273.33 -101.83,-389.33 -154.03,-404.59 -194.98,-379.85 -395.88,-227.48 -60.44,45.84 -112.88,73.22 -183.45,123.96 -221.94,159.55 -365.43,212.05 -595.46,327.91 -112.15,56.48 -325.85,125.84 -444.64,171.61 -96.49,37.18 -151.77,71.41 -238.42,-7.48 -607.42,-552.99 -907.58,-1075.4 -1002.34,-1167.23 -96.93,-93.92 -128.2,-63.07 -198.59,-78.87 -50.52,-11.35 -13.85,0.75 -35.07,-12.72 59.96,-93.43 297.2,-1.9 388.73,-38.58 54.77,-21.93 132.74,-77.8 321.74,-151.12 148.31,-57.55 377.11,-122.6 540.75,-140.27 33.02,-3.57 186.65,-8.93 206.99,-34.33 34.46,-84.72 9.78,-361.52 40.39,-489.86 31.28,-131.15 124.59,-357.19 124.97,-385.45 -136.53,-0.27 -186.61,96.5 -255.59,107.49 3.4,-118.37 315.89,-467.99 445.74,-575.3 27.83,-22.99 163.84,-131.51 183.6,-168.68 -35.91,-72.75 -40.62,-6.15 -46.23,-87.94 65.37,-66.65 264.5,-103.68 292.82,-117.26 -17.82,-74.45 -186.66,-65.41 -262.29,-64 -61.89,1.17 -232.47,21.24 -263.28,64zm5320.27 -107.19c-14.27,-43.42 1.42,-13.82 -0.47,-32.89 -0.27,-2.59 -0.21,-7.27 -0.64,-10.07 -0.46,-2.97 -1.02,-7.6 -1.66,-10.6 -7.36,-34.4 4.83,-10.66 -11.88,-33.35 -80.62,65.35 -146.75,123.75 -238.01,177.64 -170.98,100.95 -244.82,86.58 -276.7,133.72 3.33,2.37 9.01,0.62 10.97,5.44l254.34 71.54c146.52,52.37 307.33,147.64 431.42,240.06 56,41.72 166.38,102.95 165.83,181.3l-89.26 29.31c37.33,55.46 152.93,127.52 200.25,170.91 86.28,79.12 120.94,127.42 180.48,201.18 63.08,78.14 258.25,354.82 250.34,489.79 -88.68,8.22 -158.2,-39 -242.51,-37.91 -1.72,67.98 112.5,213.33 158.85,275.41 31.51,42.2 184.16,219.9 234.65,210.68 60.39,-37.38 228.1,-238.11 216.3,-321.57 -8.21,-58.07 -130.65,-354.1 -157.67,-384.14 -96.59,6.45 -98.51,55.6 -171.95,23.25 5.57,-73.96 60.43,-68.9 130.52,-96.39 350.07,-137.28 1079.34,-297.96 1405.87,-244.55 149.19,24.39 657.09,858.89 732.33,1035.99 29.28,68.91 12.9,67.26 12.9,67.27 -10.37,105.17 -693.77,75.26 -819.86,74.88 -105.75,-0.32 -318.99,6.06 -411.58,-16.39 -80.91,-19.63 -300.24,-59.36 -384.42,-59.22 -132.42,177.7 -40.72,218.82 114.56,580.95 54.5,127.1 48.51,174.39 182.84,228.47 123.17,49.58 226.66,57.3 386.94,49.45 -22.64,-101.38 -186.73,-224.25 -152.16,-296.8 99.7,57.54 182.94,309.57 460.07,296.8 -8.09,-122.99 -49.65,-220.87 -33.41,-281.5 10.04,-37.47 -2.24,-11.47 17.4,-35.06 31.75,57.82 25.18,112.69 48.65,170.26 21.24,52.07 41.02,98.74 65.58,152.53 45,98.53 112.26,192.78 176.57,279.56 91.2,123.08 124.05,130.86 316.81,97.08 203.82,-35.73 427.12,-201.12 529.81,-358.77 65.62,-100.75 113.91,-276.9 -43.11,-298.59 -72.22,-9.97 -266.5,97.51 -341.81,118.13 -64,17.53 -114.65,27.06 -179.19,39.24 -82.91,15.64 -166.6,42.14 -218.7,-12.61 118.75,-38.8 175.4,-7.42 373.53,-110.02 124.54,-64.51 543.56,-300.53 424.48,-483.73 -64.7,-99.57 -150.07,-175.16 -222.82,-274.93 -158.82,-217.81 -691.85,-1016.46 -713.5,-1249.65 50.99,-40.67 50.68,-3.87 113.37,-58.63 -44.24,-39.73 -84.49,-42.47 -143.19,-71.58 47.72,-56 69.5,-30.32 105.1,-74.99 -94.33,-96.02 -266.55,-116.11 -305.79,-131.91 6.95,-85.91 10.2,1.42 36.47,-69.64 -158.89,-68.41 -470.32,-2.34 -638.61,31.43 -505.57,101.44 -738.02,2.27 -1191.48,-168.25 -84.93,-31.94 -159.56,-63.33 -258.38,-88.02 -94.92,-23.71 -223.99,-23.55 -299.57,-71.94 17.85,-71.4 111.93,-102.44 165.34,-142.58l-21.94 -9.35c-107.1,-20.71 84.32,0.37 -23.03,-4.38 -113.72,-5.04 -266.77,107.18 -309.27,107.74zm-2503.94 -1827.54c18.88,49.25 317.37,180.54 296.63,357.14 -62.26,9.69 -563.9,-202.57 -1054.85,74.73 -75.87,42.85 -212.96,112.57 -246.93,185.78l279.36 -32.46c-28.17,70.26 15.86,23.52 -59.43,70.25 -97.86,60.75 -356.63,229.78 -369.16,335.6 63.46,-11.63 277.63,-258.34 732.5,-263.89 -18.34,101.07 -114.06,153.51 -126.43,274.47 57.06,-10.61 79.34,-35.12 125.55,-58.4 92.37,-46.54 364.66,-113.61 477.69,-63.8 -2.79,2.08 -7.6,1.14 -8.97,5.32l-236.15 84.87c-106.85,51.02 -345.9,190.68 -430.86,273.36 -37.67,36.66 -139.33,160.67 -172.84,176 -82.85,-127.14 54.5,-385.62 62.03,-495.34 -105.93,17.92 -417.47,205.85 -459.25,279.54 122.52,36.33 146.54,-16.24 179.57,57.34l-60.88 14.22c-59.96,5.17 -157.34,3.68 -193.38,73.72 96.42,55.41 259.56,56.15 512.87,281.59 42.92,38.2 99.8,104.46 154.87,131.16 44.5,-85.2 72.23,-259.1 173.12,-297.09 -14.02,120.9 -78.25,116.58 -66.57,327.69 47.49,-10.33 265.4,-168.26 320.93,-201.47 316.43,-189.26 829.39,-349.29 1215.05,-334.88 -2.41,3.49 -6.66,3.94 -7.97,9.92 -5.6,25.46 -30.32,12.47 -48,83.08 101.36,96.13 277.79,108.11 328.45,235.52 -108.37,-14.17 -162.47,-86.18 -368.18,-75.64 28.22,82.43 93.22,80.18 124.78,246.88 33.04,174.52 -34.01,207.95 -38.25,328.56 35.19,-6.71 187.35,-58.84 219.29,-75.76 23.86,-25.67 77.8,-367.19 249.5,-561 93.42,-105.43 234.52,-195.69 385.08,-217.18 77.64,-11.09 131.81,14.21 151,-42.61 -89.98,-36.98 -285.06,-16.29 -357.2,14.58 -139.58,59.71 -182.73,147.77 -234.34,175.43 -40.34,-35.16 -51.07,-81.76 -102.59,-126.03 -92.6,-4.51 -77.51,40.72 -131.48,9.31 22.4,-79.69 69.05,-17.68 180.13,-186.66 47.39,-72.1 94.2,-158.84 106.03,-275.82 -88.76,4.02 -103,31.13 -191.48,15.42 -6.07,-85.28 112.65,-293.42 51.45,-410.95 -25.53,22.24 -49.41,95.06 -67.95,130.51 -32.9,62.94 -53.98,86.26 -92.65,127.26 -327.98,347.74 -627.06,271.61 -505.62,-330.34 -69,27.33 -27.94,33.41 -95.94,55.56 -2.51,-3.13 -5.6,-12.4 -6.57,-10.09 -0.96,2.27 -5.04,-7.73 -6.32,-10.06 -37.71,-68.83 6.88,15.37 -10.98,-20.32 -75.78,-151.46 -179.54,-285.04 -353.75,-332.77 -59.64,-16.33 -181.9,-36.96 -220.91,-12.25zm-4066.18 4133.29c12.13,44.49 107.8,178.35 141.96,228.36 166.87,244.29 297.86,400.03 517.6,610.49 196.56,188.27 217.59,215.93 491.32,89.22 101.43,-46.96 427.31,-186.71 476.53,-268.51 -29.11,-79.46 -161.61,-146.23 -266.96,-373.64 -21.65,-46.74 -36.62,-113.73 -66.86,-149.46 -68.38,70.11 -22.89,215.57 -87.95,237.91 -103.6,-252.32 -190.95,-654.44 -194.6,-662.75 -271.07,-25.22 -853.36,113.81 -1011.04,288.38zm3820.26 -2339.7c24.28,104.33 38.8,31.45 50.95,114.11 15.67,106.56 -91.61,162.75 -170.44,111.53 -42.12,-27.38 -34.21,-50.79 -62.06,-95.01 -64.96,11.86 -55.38,43.65 -117.26,72.07 -64.44,-27.33 -40.74,-45.53 -102.59,-78.61 -63.75,22.31 -39.4,39.83 -85.76,64.08 -38.05,19.9 -80.62,12 -111.82,-10.94 -103.65,-76.15 1.24,-150.66 27.58,-204.26 -148.89,-98.43 -347.78,-238.12 -597.52,-230.39 -48.97,96.45 -113.84,277.1 -61.45,406.85 25.92,31.39 45.4,29.79 92.05,54.88 218.23,117.33 96.89,72.21 374.6,31.28 283.72,-41.8 535.9,51.11 733.78,207.87 80.58,63.84 40.41,17.76 251.99,71.47 46.64,11.85 86.91,13.9 132.78,26.27 104.61,28.2 148.9,89.88 407.52,-0.21 225.08,-78.41 385.06,-415.61 351.26,-582.75 -13.78,-68.16 -58.65,-172.99 -110.88,-209.37 -70.63,-49.18 -471.83,34.75 -555.49,58.8 -149.63,43.04 -335.04,132.9 -447.24,192.33zm4597.17 1400.3c61.28,3.83 351.01,-144.42 418.67,198 39.2,198.42 -189.71,350.96 -218.44,462.91 3.5,2.09 9.06,0.5 10.98,5.3l433.16 39c558.67,-2.33 514.54,19.39 417.58,-182.43 -30.66,-63.82 -49.55,-106.13 -84.69,-165.46 -63,-106.36 -131.86,-197.42 -206.47,-291.78 -46.48,-58.77 -75.71,-80.43 -119.84,-129.24 -59.77,-66.1 -40.22,-78.31 -152.11,-92.78 -150.22,-19.42 -333.15,-35.99 -496.65,-15.36l-2.19 171.84zm-2966.24 -1224.44c96.67,1.33 83.93,-16.81 153.22,-25.9 210.29,-27.56 404.99,35.28 498.06,-52.06 99.2,-93.08 218.33,-405.4 89.29,-531.04 -178.34,-173.64 -709.33,122.6 -740.57,609zm-1170.01 4347.73c-127.01,-57.43 -295.73,-95.3 -431.09,-154.95 -63.61,-28.03 -149.87,-88.6 -219.41,-29.31 -152.63,130.13 -347.73,620.61 556.18,246.4 45.12,-18.68 77.92,-22.28 94.32,-62.14zm-1880.71 -5590.33c2.97,135.21 132.01,431.02 212.25,473.94 51.66,-56.54 89.08,-187.73 189.37,-293.49 47.26,-49.85 56.71,-28.98 78.52,-93.74l-207.92 20.28c4.67,-96.05 134.17,-156.62 142.75,-233.65 4.47,-40.18 -25.98,-100.56 -33.91,-152.14 -9.13,-59.35 -4.19,-120.08 -10.46,-181.81 -87.99,10.51 -162,216.02 -171.15,291.16 -33.5,275 76.16,264.73 -199.45,169.45zm-374.03 1158.44l286.57 3.33c7.1,-61.15 23.99,-219.58 -26.14,-258.03 -32.33,-24.79 6.81,2.56 -28.31,-14.3 -3.98,-1.91 -16.93,-7.31 -20.49,-8.94l-20.21 -9.73c23.39,-52.94 20.65,-25.48 18.95,-93.88 -41.13,-32.32 -91.62,-88.16 -166.4,-87.35 -248.34,2.69 -185.01,302.29 -43.97,468.9zm1113.94 343.16l-29.32 0.03c-333.18,0.34 -260.4,324.06 132.6,300.07 317.27,-19.38 319.91,-300.52 -103.28,-300.1zm997.38 1656.55c75.64,-7.24 137.8,-75.58 186.05,-121.98 24.16,-23.22 48.55,-46.21 78.95,-81.62 36.11,-42.09 51.96,-59.99 63.57,-112.02 -61.17,5.27 -245.69,-2.38 -273.14,45.29 -17.34,30.11 -6.7,108.96 -14.29,150.3 -9.41,51.36 -29.47,74.01 -41.14,120.03zm-1541.47 -309.62l-0.97 -321.52c-36.06,-15.24 -149.71,-32.49 -193.1,-20.37 -7.74,123.66 92.72,335.46 194.07,341.89zm-649.37 -2220.29c95.55,-9.4 145.98,-48.37 246.79,1.54 109.86,54.39 86.43,95.87 155.19,128.73l62.11 -45.04c-32.44,-169.56 -378.45,-307.58 -464.09,-85.23z"/>
 </g>
</svg>
